


<svg xmlns="http://www.w3.org/2000/svg" version="1.0" viewBox="0 0 999 999" preserveAspectRatio="xMidYMid meet" style="width: 50px; height: 50px;">

<g transform="translate(0.000000,1024.000000) scale(0.100000,-0.100000)" fill="#000000" stroke="none">
<path d="M0 5120 l0 -5120 2160 0 c1913 0 2160 2 2160 15 0 13 -20 15 -120 15 -73 0 -120 4 -120 10 0 6 -18 10 -40 10 -29 0 -40 4 -40 15 0 11 -11 15 -40 15 -36 0 -40 3 -40 25 0 25 -1 25 -80 25 -64 0 -80 3 -80 15 0 11 -11 15 -40 15 -29 0 -40 4 -40 15 0 11 -11 15 -40 15 -22 0 -40 5 -40 10 0 6 -18 10 -40 10 -29 0 -40 4 -40 15 0 11 -11 15 -40 15 -29 0 -40 4 -40 15 0 12 -16 15 -88 15 -73 0 -92 3 -105 18 -10 10 -17 23 -17 29 0 6 -7 16 -15 23 -12 10 -15 10 -15 -4 0 -24 -18 -19 -45 12 -21 23 -26 25 -35 12 -9 -13 -14 -11 -35 13 -20 23 -32 27 -75 27 -30 0 -50 4 -50 11 0 6 -11 20 -25 31 -14 11 -25 25 -25 31 -1 28 -39 57 -74 57 -33 0 -36 2 -36 30 l0 30 -80 0 c-47 0 -80 4 -80 10 0 6 -18 10 -40 10 l-40 0 0 40 0 40 -40 0 c-38 0 -40 2 -40 30 0 28 -2 30 -40 30 -22 0 -40 5 -40 10 0 6 -18 10 -40 10 -29 0 -40 4 -40 15 0 9 -9 15 -24 15 -23 0 -62 40 -92 95 -6 11 -21 25 -33 31 -13 7 -28 17 -34 23 -6 6 -21 11 -34 11 -20 0 -23 5 -23 40 0 35 -3 40 -24 40 -13 0 -29 7 -36 15 -7 8 -18 15 -25 15 -8 0 -22 11 -33 25 -25 32 -42 32 -42 0 0 -30 -11 -32 -36 -4 -15 17 -16 22 -4 29 12 7 11 12 -4 29 -11 12 -25 21 -31 21 -7 0 -18 7 -25 15 -7 8 -23 15 -36 15 -13 0 -24 5 -24 10 0 6 -12 22 -28 35 -22 20 -25 26 -12 34 12 8 12 13 -4 30 -14 16 -31 21 -68 21 -36 0 -48 4 -48 15 0 8 7 15 17 15 15 0 15 1 0 18 -10 10 -17 28 -17 40 0 16 -6 22 -24 22 -13 0 -29 7 -36 15 -7 8 -18 15 -25 15 -8 0 -22 11 -33 25 -11 14 -25 25 -31 25 -6 0 -11 17 -11 39 0 29 5 40 17 43 15 3 15 4 0 17 -15 12 -17 11 -17 -3 0 -9 -4 -16 -9 -16 -12 0 -71 59 -71 71 0 5 -5 9 -11 9 -6 0 -20 11 -31 25 -11 14 -25 25 -33 25 -7 0 -18 7 -25 15 -11 13 -8 15 20 15 l32 0 -29 38 c-15 20 -33 46 -39 56 -6 11 -19 24 -30 30 -10 6 -35 23 -55 38 -20 16 -41 28 -46 28 -6 0 -18 9 -29 21 -16 17 -16 22 -4 30 13 8 10 14 -12 34 -16 13 -28 29 -28 35 0 5 -7 10 -15 10 -11 0 -15 11 -15 38 -1 28 -7 41 -25 55 -22 15 -25 16 -25 2 0 -8 -7 -15 -15 -15 -12 0 -15 16 -15 80 0 79 0 80 -25 80 -16 0 -25 -6 -25 -16 0 -14 -3 -14 -15 -4 -11 9 -15 35 -15 105 0 97 -3 105 -54 130 -16 8 -22 21 -24 58 -2 26 -7 47 -13 47 -5 0 -9 36 -9 80 0 64 -3 80 -15 80 -11 0 -15 11 -15 40 0 36 -2 40 -25 40 l-25 0 0 124 c0 98 -3 126 -15 136 -12 10 -15 10 -15 -4 0 -9 -7 -16 -15 -16 -11 0 -15 11 -15 40 0 22 -4 40 -10 40 -5 0 -10 18 -10 40 0 38 -2 40 -30 40 l-30 0 0 120 c0 73 -4 120 -10 120 -5 0 -10 18 -10 40 0 29 -4 40 -15 40 -11 0 -15 -11 -15 -40 0 -29 -4 -40 -15 -40 -12 0 -15 16 -15 80 0 47 -4 80 -10 80 -5 0 -10 18 -10 40 0 29 -4 40 -15 40 -11 0 -15 11 -15 40 0 29 -4 40 -15 40 -12 0 -15 16 -15 80 0 47 -4 80 -10 80 -6 0 -10 33 -10 80 0 64 -3 80 -15 80 -11 0 -15 11 -15 40 0 29 -4 40 -15 40 -13 0 -15 24 -15 160 0 100 -4 160 -10 160 -6 0 -10 33 -10 80 0 64 -3 80 -15 80 -11 0 -15 12 -15 50 0 43 -4 55 -27 76 -19 17 -24 27 -15 31 15 6 17 163 2 163 -6 0 -10 47 -10 120 0 73 4 120 10 120 7 0 10 193 10 560 0 491 2 560 15 560 11 0 15 11 15 40 0 29 4 40 15 40 12 0 15 16 15 80 0 47 4 80 10 80 6 0 10 47 10 120 0 100 3 120 15 120 11 0 15 11 15 40 0 29 4 40 15 40 12 0 15 16 15 80 0 47 4 80 10 80 6 0 10 18 10 40 0 38 2 40 30 40 l30 0 0 80 c0 47 4 80 10 80 6 0 10 18 10 40 0 38 2 40 30 40 28 0 30 2 30 40 0 22 4 40 9 40 5 0 12 36 16 80 l7 80 34 0 34 0 0 120 0 120 30 0 c28 0 30 2 30 40 0 22 5 40 10 40 6 0 10 18 10 40 0 38 2 40 30 40 29 0 30 1 30 49 0 41 4 53 25 69 14 11 25 30 25 41 0 12 12 33 28 46 22 20 24 26 13 34 -18 12 -2 35 38 54 22 10 26 20 29 60 2 26 7 47 13 47 5 0 9 20 9 44 0 26 6 48 15 56 13 11 15 8 15 -20 0 -28 2 -31 15 -20 9 7 15 29 15 52 0 31 6 45 25 60 14 11 25 30 25 44 0 13 4 24 9 24 12 0 71 59 71 71 0 5 -7 9 -16 9 -14 0 -14 3 -4 15 7 8 18 15 25 15 25 0 45 36 45 83 0 34 4 47 14 47 8 0 16 -7 18 -17 3 -15 4 -15 17 0 12 15 11 17 -3 17 -22 0 -20 23 4 38 12 7 25 24 30 37 5 14 21 30 35 35 13 5 30 18 37 30 7 11 23 20 35 20 27 0 83 55 83 82 0 11 11 29 25 40 14 11 25 25 25 33 0 7 7 18 15 25 13 11 15 8 15 -20 0 -28 2 -31 15 -20 20 17 20 80 0 80 -8 0 -15 5 -15 10 0 6 -8 10 -17 10 -21 0 -7 16 29 34 12 6 27 21 33 34 5 12 13 22 17 22 15 0 60 45 69 68 5 12 20 26 33 32 13 5 31 19 40 32 14 19 25 23 66 21 28 0 50 3 50 7 0 12 59 70 71 70 5 0 9 4 9 9 0 12 59 71 70 71 5 0 11 -6 14 -12 3 -7 3 -3 0 10 -4 16 1 28 16 40 11 9 26 28 33 42 10 20 21 26 56 28 32 2 49 10 63 28 14 17 29 24 54 24 26 0 42 7 59 28 20 22 26 25 34 12 8 -12 13 -12 30 4 12 11 21 24 21 31 0 6 18 31 40 55 30 32 40 52 40 77 0 23 5 33 15 33 8 0 15 -7 15 -15 0 -11 11 -15 40 -15 29 0 40 4 40 15 0 9 -9 15 -25 15 -30 0 -32 11 -4 36 17 15 22 16 29 4 7 -12 12 -11 29 4 12 11 21 23 21 28 0 4 -587 8 -1305 8 l-1305 0 0 -5120z m2180 4815 c0 -10 -10 -15 -26 -15 -22 0 -25 2 -14 15 7 8 19 15 26 15 8 0 14 -7 14 -15z m-1300 -1520 c0 -8 -7 -15 -16 -15 -14 0 -14 3 -4 15 7 8 14 15 16 15 2 0 4 -7 4 -15z m2000 -7951 c0 -14 -3 -14 -15 -4 -8 7 -15 14 -15 16 0 2 7 4 15 4 8 0 15 -7 15 -16z"/>
<path d="M7760 10227 c0 -7 9 -18 20 -25 12 -7 25 -24 30 -37 5 -14 21 -30 35 -35 13 -5 30 -18 37 -30 7 -11 23 -20 36 -20 14 0 33 -11 44 -25 16 -21 28 -25 69 -25 l49 0 0 -40 0 -40 44 0 c26 0 48 -6 56 -15 10 -12 10 -15 -4 -15 -9 0 -16 -4 -16 -9 0 -17 61 -71 81 -71 11 0 31 -12 45 -27 17 -19 27 -24 31 -15 9 21 73 14 94 -10 10 -13 18 -28 19 -35 0 -6 11 -20 25 -31 14 -11 25 -29 25 -40 0 -20 53 -82 71 -82 5 0 9 -18 9 -40 0 -34 3 -40 22 -40 12 0 30 -7 40 -17 17 -15 18 -14 18 15 0 31 2 32 40 32 29 0 40 -4 40 -15 0 -8 -8 -15 -17 -15 -21 0 -7 -16 29 -34 12 -6 29 -24 36 -39 8 -16 24 -32 37 -37 14 -5 30 -18 37 -30 7 -11 18 -20 25 -20 7 0 13 -4 13 -9 0 -12 59 -71 71 -71 5 0 9 -11 9 -25 0 -22 4 -25 40 -25 29 0 40 -4 40 -15 0 -8 -7 -15 -15 -15 -11 0 -15 -11 -15 -40 0 -29 4 -40 15 -40 9 0 15 9 15 25 0 30 11 32 33 7 11 -12 17 -36 17 -69 0 -33 5 -55 15 -63 12 -10 15 -10 15 4 0 12 10 16 40 16 l40 0 0 -65 0 -65 43 0 c24 0 48 -5 55 -12 7 -7 12 -36 12 -64 0 -44 4 -56 25 -72 14 -11 25 -30 25 -41 0 -12 12 -33 28 -47 18 -17 23 -27 15 -31 -8 -3 -13 -24 -13 -52 0 -62 20 -81 83 -81 35 0 47 -4 47 -15 0 -8 -7 -15 -15 -15 -11 0 -15 -11 -15 -40 0 -29 4 -40 15 -40 8 0 15 -4 15 -9 0 -5 14 -23 31 -40 17 -17 35 -31 40 -31 5 0 9 -22 9 -49 0 -42 5 -54 31 -80 17 -17 35 -31 40 -31 5 0 9 -18 9 -40 0 -36 3 -40 25 -40 23 0 25 -4 25 -40 0 -22 -4 -40 -10 -40 -5 0 -10 -18 -10 -40 0 -22 5 -40 10 -40 6 0 10 -18 10 -40 0 -29 4 -40 15 -40 9 0 15 9 15 25 0 28 12 32 29 11 9 -11 9 -15 -1 -19 -7 -3 -8 -6 -3 -6 6 -1 9 -20 7 -46 -3 -28 0 -45 7 -45 6 0 11 -18 11 -40 0 -38 2 -40 30 -40 28 0 30 -2 30 -40 0 -29 -4 -40 -15 -40 -11 0 -15 -11 -15 -40 0 -36 3 -40 25 -40 23 0 25 -4 25 -44 0 -26 6 -48 15 -56 8 -7 15 -23 15 -36 0 -15 6 -24 15 -24 12 0 15 -16 15 -80 0 -47 4 -80 10 -80 6 0 10 -18 10 -40 0 -29 4 -40 15 -40 11 0 15 -11 15 -40 0 -29 4 -40 15 -40 12 0 15 -16 15 -80 0 -64 -3 -80 -15 -80 -23 0 -18 -20 10 -42 21 -16 25 -28 25 -69 0 -37 4 -49 15 -49 11 0 15 -11 15 -40 0 -29 4 -40 15 -40 12 0 15 -16 15 -80 0 -47 4 -80 10 -80 6 0 10 -47 10 -120 0 -100 3 -120 15 -120 11 0 15 -11 15 -40 0 -29 4 -40 15 -40 13 0 15 -20 15 -120 0 -73 4 -120 10 -120 6 0 10 -47 10 -120 0 -100 3 -120 15 -120 13 0 15 260 15 2280 l0 2280 -1240 0 c-990 0 -1240 -3 -1240 -13z m1700 -1652 c10 -12 10 -15 -4 -15 -9 0 -16 7 -16 15 0 8 2 15 4 15 2 0 9 -7 16 -15z"/>
<path d="M8370 9756 c0 -2 7 -9 15 -16 12 -10 15 -10 15 4 0 9 -7 16 -15 16 -8 0 -15 -2 -15 -4z"/>
<path d="M9200 8865 c0 -11 11 -15 40 -15 29 0 40 4 40 15 0 11 -11 15 -40 15 -29 0 -40 -4 -40 -15z"/>
<path d="M9250 8796 c0 -2 7 -9 15 -16 12 -10 15 -10 15 4 0 9 -7 16 -15 16 -8 0 -15 -2 -15 -4z"/>
<path d="M4742 7890 c-621 -49 -1211 -330 -1658 -791 -125 -130 -202 -226 -314 -396 -208 -313 -333 -634 -397 -1018 -26 -157 -26 -590 0 -755 82 -512 304 -978 667 -1401 647 -753 1527 -1098 2456 -964 141 20 396 84 521 131 232 86 493 238 713 415 120 97 304 285 399 409 423 548 631 1153 608 1775 -18 486 -161 937 -431 1355 -59 92 -237 322 -268 348 -20 16 -34 -3 -98 -128 -23 -47 -46 -89 -50 -95 -4 -5 -42 -77 -85 -160 -43 -82 -122 -233 -175 -335 -53 -102 -107 -197 -121 -211 -13 -15 -37 -51 -52 -80 -29 -57 -82 -142 -265 -420 -62 -95 -111 -173 -109 -175 2 -2 19 1 38 6 19 5 97 16 174 26 77 9 145 21 151 26 8 6 13 -5 18 -37 20 -146 20 -134 -5 -139 -282 -64 -517 -113 -687 -144 -29 -5 -55 -6 -58 -1 -17 27 124 257 320 522 31 42 83 118 116 169 73 112 76 110 -110 74 -120 -24 -180 -31 -180 -22 0 2 13 30 30 62 16 32 30 65 30 72 0 20 33 29 215 62 246 44 269 49 293 66 29 20 21 32 -16 26 -16 -2 -32 1 -36 6 -5 9 112 324 160 432 9 19 29 69 44 110 16 41 32 84 36 94 5 13 4 17 -3 13 -6 -4 -138 -34 -294 -67 -684 -146 -900 -193 -1039 -225 -93 -22 -328 -74 -475 -105 -241 -52 -320 -72 -805 -200 -284 -74 -359 -99 -412 -133 -67 -44 -77 -70 -91 -236 l-12 -145 -118 165 c-65 90 -132 183 -149 207 -20 27 -28 46 -22 52 5 5 104 29 219 54 116 24 287 60 380 80 94 20 269 57 390 82 121 26 225 51 231 55 6 5 26 67 44 139 18 71 36 133 39 138 3 5 69 21 146 36 147 29 582 122 970 207 127 28 325 70 440 95 311 66 706 155 735 166 l25 9 -40 35 c-413 359 -910 584 -1434 649 -157 19 -451 26 -599 15z m1008 -1862 c0 -18 -5 -85 -10 -148 -19 -226 -50 -646 -53 -705 l-2 -59 -56 -17 c-31 -10 -76 -19 -100 -21 l-44 -3 2 40 c1 22 9 114 18 204 8 90 13 166 11 168 -6 7 -116 -174 -135 -222 -8 -19 -63 -85 -71 -85 -10 0 -14 4 -72 80 -24 30 -61 75 -84 100 -23 25 -59 65 -79 90 -20 25 -39 47 -42 50 -18 19 57 -253 109 -394 16 -44 25 -83 21 -87 -4 -4 -50 -15 -102 -24 -108 -19 -106 -20 -116 65 -4 31 -10 62 -14 68 -5 9 -43 3 -145 -23 -76 -19 -144 -39 -151 -45 -10 -8 -68 -147 -88 -211 -4 -12 -32 -21 -101 -34 -52 -9 -100 -14 -106 -10 -27 16 -9 67 210 595 152 369 177 424 197 431 10 4 37 8 59 8 38 1 43 -2 55 -31 7 -18 38 -86 69 -151 l56 -117 -3 87 c-2 49 -5 114 -6 146 -3 50 -1 57 15 57 22 0 103 -79 208 -202 41 -49 81 -88 87 -88 7 0 39 35 70 78 54 73 278 355 329 415 34 39 64 36 64 -5z m-1367 -276 c5 -7 -4 -158 -23 -402 -27 -337 -38 -388 -97 -465 -60 -79 -199 -156 -301 -168 -65 -7 -120 9 -189 56 -62 41 -63 43 -63 87 0 86 -1 85 108 85 82 0 105 4 146 24 68 34 111 74 131 123 16 41 46 300 61 520 4 60 12 112 18 117 25 21 199 40 209 23z m36 -1032 c9 -7 106 -138 166 -225 115 -164 231 -324 275 -380 26 -33 78 -104 115 -158 37 -54 77 -104 89 -112 29 -18 116 -35 182 -35 71 0 103 19 142 84 45 74 120 235 145 312 l22 67 155 57 c85 32 168 62 183 69 16 6 31 11 34 11 5 0 -9 -26 -133 -245 -37 -66 -112 -201 -166 -300 -55 -99 -119 -211 -142 -250 -24 -38 -71 -118 -106 -177 -34 -60 -65 -108 -68 -108 -4 0 -14 11 -23 23 -42 59 -194 278 -289 417 -188 276 -222 320 -249 320 -14 0 -244 -54 -511 -120 -267 -66 -493 -122 -502 -124 -20 -4 -23 5 -37 90 -6 37 -6 77 -1 100 9 38 62 173 168 431 27 66 57 144 67 172 15 46 20 51 45 51 16 0 61 12 99 26 39 14 77 24 85 21 18 -7 15 -22 -61 -251 -59 -180 -71 -260 -42 -279 13 -8 47 -2 140 26 68 21 173 48 234 62 128 29 215 55 215 65 0 3 -11 17 -25 30 -47 44 -236 338 -235 366 0 5 6 0 12 -11 6 -11 14 -22 17 -25z"/>
<path d="M4776 5462 c-6 -10 -66 -171 -66 -177 0 -3 15 -2 33 1 59 11 97 25 97 38 0 11 -48 137 -55 144 -2 2 -6 -1 -9 -6z"/>
<path d="M10210 5280 c0 -153 -4 -240 -10 -240 -6 0 -10 -113 -10 -320 l0 -320 -30 0 -30 0 0 -80 c0 -47 -4 -80 -10 -80 -5 0 -10 -18 -10 -40 0 -29 -4 -40 -15 -40 -11 0 -15 -11 -15 -40 0 -29 -4 -40 -15 -40 -12 0 -15 -16 -15 -80 0 -47 -4 -80 -10 -80 -6 0 -10 -33 -10 -80 0 -64 -3 -80 -15 -80 -9 0 -15 -9 -15 -24 0 -13 -7 -29 -15 -36 -9 -8 -15 -30 -15 -56 0 -24 -4 -44 -10 -44 -5 0 -10 -18 -10 -40 0 -29 -4 -40 -15 -40 -11 0 -15 -11 -15 -40 0 -29 -4 -40 -15 -40 -12 0 -15 -16 -15 -80 0 -79 0 -80 -25 -80 -22 0 -25 -4 -25 -40 0 -29 -4 -40 -15 -40 -11 0 -15 -11 -15 -40 0 -22 -4 -40 -10 -40 -5 0 -10 -18 -10 -40 0 -29 -4 -40 -15 -40 -11 0 -15 11 -15 40 0 29 -4 40 -15 40 -12 0 -15 -20 -15 -120 0 -73 -4 -120 -10 -120 -5 0 -10 -20 -10 -44 0 -26 -6 -48 -15 -56 -12 -10 -15 -10 -15 4 0 9 -7 16 -15 16 -11 0 -15 -12 -15 -49 0 -50 -9 -64 -54 -86 -16 -8 -22 -21 -24 -58 -2 -26 -7 -47 -12 -47 -5 0 -10 -21 -12 -47 -2 -37 -8 -50 -24 -58 -45 -22 -54 -36 -54 -86 0 -36 -4 -49 -14 -49 -8 0 -16 7 -18 17 -3 15 -4 15 -17 0 -12 -15 -11 -17 3 -17 9 0 16 -4 16 -9 0 -12 -59 -71 -71 -71 -5 0 -9 -11 -9 -25 0 -23 -4 -25 -43 -25 -24 0 -48 -5 -55 -12 -18 -18 -16 -98 3 -98 11 0 15 -11 15 -40 0 -23 -5 -40 -11 -40 -6 0 -20 -11 -31 -25 -11 -14 -24 -25 -29 -25 -5 0 -9 11 -9 25 0 16 -6 25 -15 25 -12 0 -15 -15 -15 -76 0 -66 -3 -78 -22 -95 -13 -10 -28 -18 -34 -19 -24 0 -44 -38 -44 -83 0 -46 -1 -47 -30 -47 -28 0 -30 -2 -30 -40 0 -36 -2 -40 -25 -40 -16 0 -25 6 -25 16 0 14 -2 15 -17 3 -15 -13 -15 -14 0 -17 24 -5 21 -20 -10 -47 -24 -21 -26 -26 -13 -34 13 -9 12 -14 -8 -33 -19 -20 -24 -21 -33 -8 -8 13 -13 11 -34 -12 -13 -16 -29 -28 -35 -28 -5 0 -10 -6 -10 -13 0 -7 -9 -18 -20 -25 -12 -7 -25 -24 -30 -37 -5 -14 -21 -30 -35 -35 -13 -5 -30 -18 -37 -30 -7 -11 -18 -20 -25 -20 -7 0 -13 -7 -13 -15 0 -11 -12 -15 -48 -15 -35 0 -54 -5 -65 -18 -23 -25 -21 -32 8 -32 16 0 25 -6 25 -15 0 -11 -11 -15 -36 -15 -35 0 -73 -29 -74 -56 0 -6 -9 -19 -21 -30 -17 -15 -22 -16 -29 -4 -7 12 -12 11 -29 -4 -16 -14 -21 -31 -21 -68 0 -36 -4 -48 -15 -48 -8 0 -15 7 -15 15 0 11 -11 15 -40 15 -29 0 -40 -4 -40 -15 0 -8 -4 -15 -9 -15 -20 0 -71 -62 -71 -86 0 -21 -4 -24 -40 -24 -22 0 -40 -4 -40 -10 0 -5 -20 -10 -44 -10 -26 0 -48 -6 -56 -15 -10 -12 -10 -15 4 -15 9 0 16 -7 16 -15 0 -11 -11 -15 -40 -15 -22 0 -40 -4 -40 -10 0 -5 -18 -10 -40 -10 -36 0 -40 -2 -40 -26 0 -16 -10 -34 -25 -46 -14 -11 -25 -25 -25 -31 -1 -30 -39 -57 -78 -57 -23 0 -45 -6 -52 -15 -7 -8 -27 -15 -45 -15 -24 0 -42 -9 -64 -31 -17 -17 -31 -35 -31 -40 0 -5 -11 -9 -24 -9 -13 0 -29 -7 -36 -15 -17 -21 -80 -20 -80 1 0 8 -4 12 -10 9 -5 -3 -10 -15 -10 -26 0 -16 -7 -19 -40 -19 -29 0 -40 -4 -40 -15 0 -8 8 -15 17 -15 21 0 7 -16 -28 -34 -13 -6 -29 -22 -35 -35 -18 -35 -34 -49 -34 -28 0 13 -9 17 -40 17 -36 0 -40 -2 -40 -25 0 -25 -1 -25 -80 -25 -64 0 -80 -3 -80 -15 0 -8 -5 -15 -11 -15 -6 0 -20 -11 -31 -25 -18 -23 -25 -25 -109 -25 l-89 0 0 -30 0 -30 -80 0 c-47 0 -80 -4 -80 -10 0 -6 -33 -10 -80 -10 -47 0 -80 4 -80 10 0 6 -18 10 -40 10 -22 0 -40 -4 -40 -10 0 -6 -33 -10 -80 -10 l-80 0 0 -30 c0 -28 -2 -30 -40 -30 -22 0 -40 -4 -40 -10 0 -5 -18 -10 -40 -10 -29 0 -40 -4 -40 -15 0 -13 242 -15 2120 -15 l2120 0 0 2760 c0 2447 -2 2760 -15 2760 -13 0 -15 -33 -15 -240z m-900 -3160 c0 -29 -4 -40 -15 -40 -11 0 -15 11 -15 40 0 29 4 40 15 40 11 0 15 -11 15 -40z"/>
<path d="M9500 2495 c-10 -12 -10 -15 4 -15 9 0 16 7 16 15 0 8 -2 15 -4 15 -2 0 -9 -7 -16 -15z"/>
</g>
</svg>
